<svg xmlns="http://www.w3.org/2000/svg">

  <symbol viewBox="0 0 12 24" id="fb">
    <path d="M11.5481 0.0049936L8.66986 0C5.43624 0 3.34653 2.31828 3.34653 5.90643V8.62969H0.452578C0.202506 8.62969 0 8.84891 0 9.11932V13.065C0 13.3354 0.202736 13.5544 0.452578 13.5544H3.34653V23.5106C3.34653 23.781 3.54904 24 3.79911 24H7.5749C7.82497 24 8.02748 23.7808 8.02748 23.5106V13.5544H11.4112C11.6613 13.5544 11.8638 13.3354 11.8638 13.065L11.8652 9.11932C11.8652 8.98948 11.8174 8.86514 11.7326 8.77326C11.6479 8.68138 11.5324 8.62969 11.4123 8.62969H8.02748V6.32115C8.02748 5.21157 8.27201 4.64829 9.60873 4.64829L11.5477 4.64755C11.7975 4.64755 12 4.42833 12 4.15817V0.494367C12 0.224462 11.7977 0.00549296 11.5481 0.0049936Z" fill="white"/>
  </symbol>

  <symbol viewBox="0 0 24 24" id="insta">
    <path d="M17.5034 0H6.49658C2.91431 0 0 2.91431 0 6.49658V17.5036C0 21.0857 2.91431 24 6.49658 24H17.5036C21.0857 24 24 21.0857 24 17.5036V6.49658C24 2.91431 21.0857 0 17.5034 0V0ZM12 18.5623C8.38147 18.5623 5.43768 15.6185 5.43768 12C5.43768 8.38147 8.38147 5.43768 12 5.43768C15.6185 5.43768 18.5623 8.38147 18.5623 12C18.5623 15.6185 15.6185 18.5623 12 18.5623ZM18.7192 6.98529C17.6499 6.98529 16.7802 6.11554 16.7802 5.0462C16.7802 3.97687 17.6499 3.10693 18.7192 3.10693C19.7886 3.10693 20.6585 3.97687 20.6585 5.0462C20.6585 6.11554 19.7886 6.98529 18.7192 6.98529Z" fill="white"/>
    <path d="M12.0001 6.84448C9.15753 6.84448 6.84473 9.1571 6.84473 11.9998C6.84473 14.8423 9.15753 17.1552 12.0001 17.1552C14.8428 17.1552 17.1554 14.8423 17.1554 11.9998C17.1554 9.1571 14.8428 6.84448 12.0001 6.84448Z" fill="white"/>
    <path d="M18.7186 4.51392C18.4253 4.51392 18.1865 4.75269 18.1865 5.04602C18.1865 5.33936 18.4253 5.57812 18.7186 5.57812C19.0121 5.57812 19.2509 5.33954 19.2509 5.04602C19.2509 4.7525 19.0121 4.51392 18.7186 4.51392Z" fill="white"/>
  </symbol>

  <symbol viewBox="0 0 24 13" id="vk">
    <path fill-rule="evenodd" clip-rule="evenodd" d="M20.6554 8.26599C21.4515 9.00996 22.2918 9.70992 23.0058 10.5289C23.3212 10.8929 23.6199 11.2684 23.8483 11.6908C24.172 12.2912 23.8788 12.9519 23.3163 12.9878L19.82 12.9863C18.9182 13.0579 18.1988 12.7104 17.5939 12.1203C17.1098 11.6483 16.6615 11.146 16.1961 10.6581C16.0052 10.4587 15.8055 10.2711 15.5669 10.1228C15.0896 9.82623 14.6753 9.91703 14.4025 10.3935C14.1247 10.8781 14.0617 11.4148 14.0344 11.9549C13.997 12.7429 13.7481 12.9501 12.9211 12.9862C11.1537 13.066 9.47629 12.81 7.91806 11.9566C6.54426 11.2043 5.47894 10.1422 4.5517 8.93977C2.74634 6.59842 1.36379 4.02567 0.121208 1.38084C-0.158487 0.784951 0.0460603 0.465084 0.732957 0.453762C1.87358 0.432554 3.01405 0.434063 4.15601 0.452253C4.61959 0.458744 4.92649 0.713249 5.10549 1.13244C5.7226 2.58483 6.47771 3.96665 7.42553 5.24748C7.67794 5.58848 7.93532 5.92948 8.30184 6.16949C8.7073 6.43524 9.01602 6.34716 9.20677 5.91484C9.32781 5.64071 9.3808 5.34544 9.40808 5.05184C9.49845 4.04175 9.51035 3.03338 9.35186 2.02684C9.25455 1.39865 8.88488 0.991982 8.23 0.873108C7.89582 0.8125 7.94558 0.693475 8.10738 0.510898C8.38842 0.196012 8.65274 0 9.17964 0H13.1311C13.7532 0.117516 13.8913 0.385004 13.9765 0.984133L13.9799 5.18536C13.9731 5.4173 14.1009 6.10556 14.5374 6.25908C14.8867 6.36837 15.117 6.10088 15.3265 5.88887C16.2726 4.92776 16.9479 3.79192 17.5511 2.61578C17.8188 2.09861 18.049 1.56153 18.2721 1.02489C18.4373 0.626678 18.6967 0.430742 19.1653 0.439422L22.9684 0.442667C23.0811 0.442667 23.1952 0.444252 23.3044 0.46214C23.9453 0.566675 24.1209 0.830539 23.923 1.42952C23.6111 2.36927 23.0043 3.15241 22.411 3.93917C21.7768 4.77915 21.0985 5.59036 20.4696 6.43532C19.8917 7.20691 19.9376 7.59584 20.6554 8.26599Z" fill="white"/>
  </symbol>

  <symbol viewBox="0 0 50 50" id="server">
    <path d="M46.35,24.05A2.65,2.65,0,0,0,49,21.4V9.83a2.65,2.65,0,0,0-2.65-2.65H3.65A2.65,2.65,0,0,0,1,9.83V21.4a2.65,2.65,0,0,0,2.65,2.65H7.94V26H3.65A2.65,2.65,0,0,0,1,28.6V40.17a2.65,2.65,0,0,0,2.65,2.65h42.7A2.65,2.65,0,0,0,49,40.17V28.6A2.65,2.65,0,0,0,46.35,26H42.06v-1.9ZM3,21.4V9.83a.65.65,0,0,1,.65-.65h42.7a.65.65,0,0,1,.65.65V21.4a.65.65,0,0,1-.65.65H3.65A.65.65,0,0,1,3,21.4Zm44,7.2V40.17a.65.65,0,0,1-.65.65H3.65A.65.65,0,0,1,3,40.17V28.6A.65.65,0,0,1,3.65,28h42.7A.65.65,0,0,1,47,28.6ZM40.06,26H9.94v-1.9H40.06Z"/><path d="M30.23,15.61a1,1,0,0,0-1-1h-21a1,1,0,1,0,0,2h21A1,1,0,0,0,30.23,15.61Z"/><path d="M35.42,18.16a1,1,0,0,0,1-1V14.07a1,1,0,0,0-2,0v3.09A1,1,0,0,0,35.42,18.16Z"/><path d="M41,18.16a1,1,0,0,0,1-1V14.07a1,1,0,0,0-2,0v3.09A1,1,0,0,0,41,18.16Z"/><path d="M29.23,33.39h-21a1,1,0,1,0,0,2h21a1,1,0,1,0,0-2Z"/><path d="M35.42,31.84a1,1,0,0,0-1,1v3.09a1,1,0,0,0,2,0V32.84A1,1,0,0,0,35.42,31.84Z"/><path d="M40,32.84v3.09a1,1,0,0,0,2,0V32.84a1,1,0,1,0-2,0Z"/>
  </symbol>

  <symbol viewBox="0 0 512 512" id="laptop">
    <g id="_x31_1_x2C__Computer_x2C__hacking_x2C__virus_x2C__error_x2C__laptop"><g id="XMLID_858_"><g id="XMLID_165_"><path d="M256,234.635c-8.973,0-16.273-7.3-16.273-16.273v-45.092c0-8.973,7.3-16.273,16.273-16.273     c8.974,0,16.273,7.3,16.273,16.273v45.092C272.273,227.335,264.974,234.635,256,234.635z M256,166.998     c-3.459,0-6.273,2.814-6.273,6.273v45.092c0,3.459,2.814,6.273,6.273,6.273s6.273-2.814,6.273-6.273v-45.092     C262.273,169.812,259.459,166.998,256,166.998z" id="XMLID_635_"/></g><g id="XMLID_164_"><path d="M256,274.091c-8.973,0-16.273-7.3-16.273-16.273c0-8.973,7.3-16.273,16.273-16.273     c8.974,0,16.273,7.3,16.273,16.273C272.273,266.791,264.974,274.091,256,274.091z M256,251.544c-3.459,0-6.273,2.814-6.273,6.273     s2.814,6.273,6.273,6.273s6.273-2.814,6.273-6.273S259.459,251.544,256,251.544z" id="XMLID_632_"/></g><g id="XMLID_163_"><path d="M325.676,291H186.325c-8.624,0-16.346-4.459-20.658-11.927c-4.312-7.469-4.312-16.386,0-23.854l0,0     l69.675-120.681c4.312-7.468,12.035-11.927,20.658-11.927c8.624,0,16.347,4.459,20.658,11.927l69.675,120.681     c4.313,7.468,4.313,16.386,0.001,23.854C342.022,286.541,334.3,291,325.676,291z M169.997,257.719l4.33,2.5     c-2.504,4.338-2.504,9.517,0,13.854c2.504,4.337,6.99,6.927,11.998,6.927h139.351c5.009,0,9.493-2.59,11.998-6.927     c2.504-4.338,2.504-9.517-0.001-13.854l-69.675-120.681c-2.504-4.337-6.989-6.927-11.998-6.927c-5.008,0-9.494,2.59-11.998,6.927     l-69.675,120.681L169.997,257.719z" id="XMLID_629_"/></g><g id="XMLID_162_"><path d="M450,426H62c-17.093,0-31-13.906-31-31v-18c0-17.094,13.907-31,31-31h144c2.761,0,5,2.238,5,5v15h90v-15     c0-2.762,2.238-5,5-5h144c17.094,0,31,13.906,31,31v18C481,412.094,467.094,426,450,426z M62,356c-11.58,0-21,9.421-21,21v18     c0,11.579,9.42,21,21,21h388c11.579,0,21-9.421,21-21v-18c0-11.579-9.421-21-21-21H311v15c0,2.762-2.238,5-5,5H206     c-2.761,0-5-2.238-5-5v-15H62z" id="XMLID_626_"/></g><g id="XMLID_161_"><path d="M446.477,356c-2.762,0-5-2.238-5-5V133.738c0-20.809-16.93-37.738-37.738-37.738H108.262     c-20.809,0-37.738,16.929-37.738,37.738V351c0,2.762-2.239,5-5,5s-5-2.238-5-5V133.738C60.524,107.416,81.939,86,108.262,86     h295.477c26.323,0,47.738,21.416,47.738,47.738V351C451.477,353.762,449.238,356,446.477,356z" id="XMLID_625_"/></g><g id="XMLID_160_"><path d="M445.091,326H66.909c-2.761,0-5-2.238-5-5s2.239-5,5-5h378.182c2.762,0,5,2.238,5,5     S447.853,326,445.091,326z" id="XMLID_624_"/></g></g></g><g id="Layer_1"/>
  </symbol>

  <symbol viewBox="0 0 512 512" id="repair">
    <g id="_x31_4_x2C__Briefcase_x2C__cog_x2C__gear_x2C__optimization_x2C__repair"><g id="XMLID_858_"><g id="XMLID_133_"><path d="M41,206c-2.761,0-5-2.239-5-5v-29.5c0-30.603,24.897-55.5,55.5-55.5H121c2.761,0,5,2.239,5,5     C126,167.869,87.869,206,41,206z M91.5,126C66.411,126,46,146.411,46,171.5v24.335c37.378-2.473,67.362-32.457,69.835-69.835     H91.5z" id="XMLID_573_"/></g><g id="XMLID_132_"><path d="M121,451H91.5C60.897,451,36,426.103,36,395.5V366c0-2.762,2.239-5,5-5c46.869,0,85,38.131,85,85     C126,448.762,123.761,451,121,451z M46,371.165V395.5c0,25.089,20.411,45.5,45.5,45.5h24.335     C113.362,403.622,83.378,373.639,46,371.165z" id="XMLID_570_"/></g><g id="XMLID_131_"><path d="M471,206c-46.869,0-85-38.131-85-85c0-2.761,2.238-5,5-5h29.5c30.603,0,55.5,24.897,55.5,55.5V201     C476,203.761,473.762,206,471,206z M396.165,126c2.474,37.378,32.457,67.362,69.835,69.835V171.5c0-25.089-20.411-45.5-45.5-45.5     H396.165z" id="XMLID_567_"/></g><g id="XMLID_130_"><path d="M420.5,451H391c-2.762,0-5-2.238-5-5v-5c0-46.869,38.131-85,85-85c2.762,0,5,2.238,5,5v34.5     C476,426.103,451.103,451,420.5,451z M396,441h24.5c25.089,0,45.5-20.411,45.5-45.5v-29.335C426.969,368.748,396,401.326,396,441     z" id="XMLID_561_"/></g><g id="XMLID_129_"><path d="M185.61,406.254c-6.377,0-12.791-1.303-18.808-3.989c-1.503-0.671-2.579-2.038-2.878-3.657     c-0.299-1.618,0.218-3.28,1.381-4.443l19.625-19.625l-13.836-13.837l-19.625,19.625c-1.164,1.164-2.824,1.681-4.444,1.382     c-1.618-0.3-2.986-1.376-3.657-2.879c-7.787-17.441-3.948-38.231,9.554-51.733c12.676-12.675,31.772-16.836,48.491-10.855     l91.193-91.194c-5.979-16.72-1.819-35.815,10.856-48.491c13.503-13.502,34.293-17.344,51.733-9.554     c1.503,0.671,2.579,2.039,2.878,3.657c0.299,1.618-0.218,3.28-1.382,4.444l-19.624,19.625l13.836,13.837l19.626-19.625     c1.164-1.164,2.828-1.68,4.443-1.381c1.619,0.299,2.986,1.375,3.657,2.878c7.788,17.441,3.948,38.231-9.555,51.733     c-12.675,12.675-31.77,16.837-48.49,10.856l-91.193,91.193c5.98,16.72,1.819,35.816-10.856,48.491     C209.691,401.556,197.719,406.254,185.61,406.254z M178.127,395.484c11.874,2.496,24.566-1.073,33.337-9.844     c10.593-10.593,13.604-26.903,7.495-40.586c-0.845-1.893-0.435-4.109,1.03-5.574l95.857-95.856     c1.464-1.465,3.682-1.875,5.574-1.03c13.68,6.109,29.991,3.098,40.585-7.495c8.771-8.771,12.344-21.463,9.844-33.337     l-17.41,17.41c-0.938,0.938-2.209,1.464-3.535,1.464s-2.598-0.527-3.535-1.464l-20.907-20.908c-1.953-1.953-1.953-5.119,0-7.071     l17.409-17.41c-11.873-2.502-24.564,1.072-33.338,9.845c-10.592,10.592-13.604,26.902-7.494,40.585     c0.845,1.892,0.436,4.109-1.03,5.574l-95.856,95.856c-1.465,1.465-3.684,1.877-5.574,1.03     c-13.682-6.108-29.994-3.098-40.585,7.493c-8.771,8.771-12.343,21.464-9.844,33.338l17.41-17.409     c0.938-0.938,2.209-1.465,3.536-1.465s2.598,0.526,3.536,1.465l20.908,20.908c1.953,1.952,1.953,5.118,0,7.07L178.127,395.484z" id="XMLID_562_"/></g><g id="XMLID_128_"><path d="M346,126H166c-2.761,0-5-2.239-5-5V95c0-18.748,15.252-34,34-34h122c18.748,0,34,15.252,34,34v26     C351,123.761,348.762,126,346,126z M171,116h170V95c0-13.234-10.767-24-24-24H195c-13.234,0-24,10.766-24,24V116z" id="XMLID_558_"/></g><g id="XMLID_127_"><path d="M420.5,451h-329C60.897,451,36,426.103,36,395.5v-224c0-30.603,24.897-55.5,55.5-55.5h329     c30.603,0,55.5,24.897,55.5,55.5v224C476,426.103,451.103,451,420.5,451z M91.5,126C66.411,126,46,146.411,46,171.5v224     c0,25.089,20.411,45.5,45.5,45.5h329c25.089,0,45.5-20.411,45.5-45.5v-224c0-25.089-20.411-45.5-45.5-45.5H91.5z" id="XMLID_555_"/></g></g></g><g id="Layer_1"/>
  </symbol>

  <symbol viewBox="0 0 512 512" id="progr">
    <g id="_x32_2_x2C__coding_x2C__gear_x2C__options_x2C__preferences_x2C__programming"><g id="XMLID_858_"><g id="XMLID_45_"><path d="M256,373.929c-65.026,0-117.929-52.902-117.929-117.929S190.974,138.071,256,138.071     S373.929,190.974,373.929,256S321.026,373.929,256,373.929z M256,148.071c-59.512,0-107.929,48.417-107.929,107.929     c0,59.512,48.417,107.929,107.929,107.929c59.512,0,107.929-48.417,107.929-107.929C363.929,196.488,315.512,148.071,256,148.071     z" id="XMLID_396_"/></g><g id="XMLID_44_"><path d="M298.5,86.101c-2.762,0-5-2.239-5-5V28.5h-75v52.601c0,2.761-2.239,5-5,5s-5-2.239-5-5V23.5     c0-2.761,2.239-5,5-5h85c2.762,0,5,2.239,5,5v57.601C303.5,83.862,301.262,86.101,298.5,86.101z" id="XMLID_394_"/></g><g id="XMLID_43_"><path d="M102.28,167.384c-1.28,0-2.559-0.488-3.536-1.464L58.01,125.186c-1.953-1.953-1.953-5.119,0-7.071     l60.104-60.104c1.953-1.952,5.118-1.952,7.071,0l40.734,40.734c1.953,1.953,1.953,5.119,0,7.071     c-1.953,1.952-5.118,1.952-7.071,0L121.65,68.617L68.617,121.65l37.198,37.198c1.953,1.953,1.953,5.119,0,7.071     C104.839,166.896,103.56,167.384,102.28,167.384z" id="XMLID_393_"/></g><g id="XMLID_42_"><path d="M81.101,303.5H23.5c-2.761,0-5-2.238-5-5v-85c0-2.761,2.239-5,5-5h57.601c2.761,0,5,2.239,5,5     s-2.239,5-5,5H28.5v75h52.601c2.761,0,5,2.238,5,5S83.862,303.5,81.101,303.5z" id="XMLID_392_"/></g><g id="XMLID_41_"><path d="M409.721,167.384c-1.279,0-2.56-0.488-3.535-1.464c-1.953-1.953-1.953-5.119,0-7.071l37.197-37.198     l-53.032-53.033l-37.199,37.198c-1.951,1.952-5.119,1.952-7.07,0c-1.953-1.953-1.953-5.119,0-7.071l40.734-40.734     c1.951-1.952,5.119-1.952,7.07,0l60.104,60.104c1.953,1.953,1.953,5.119,0,7.071l-40.733,40.734     C412.28,166.896,411,167.384,409.721,167.384z" id="XMLID_391_"/></g><g id="XMLID_40_"><path d="M390.351,455.454c-1.279,0-2.56-0.488-3.535-1.465l-40.734-40.733c-1.953-1.952-1.953-5.118,0-7.07     c1.951-1.953,5.119-1.953,7.07,0l37.199,37.197l53.032-53.032l-37.197-37.199c-1.953-1.952-1.953-5.118,0-7.07     c1.951-1.953,5.119-1.953,7.07,0l40.733,40.734c1.953,1.952,1.953,5.118,0,7.07l-60.104,60.104     C392.91,454.966,391.63,455.454,390.351,455.454z" id="XMLID_390_"/></g><g id="XMLID_39_"><path d="M488.5,303.5h-57.601c-2.762,0-5-2.238-5-5s2.238-5,5-5H483.5v-75h-52.601c-2.762,0-5-2.239-5-5     s2.238-5,5-5H488.5c2.762,0,5,2.239,5,5v85C493.5,301.262,491.262,303.5,488.5,303.5z" id="XMLID_389_"/></g><g id="XMLID_38_"><path d="M298.5,493.5h-85c-2.761,0-5-2.238-5-5v-57.601c0-2.762,2.239-5,5-5s5,2.238,5,5V483.5h75v-52.601     c0-2.762,2.238-5,5-5s5,2.238,5,5V488.5C303.5,491.262,301.262,493.5,298.5,493.5z" id="XMLID_388_"/></g><g id="XMLID_37_"><path d="M121.65,455.454c-1.28,0-2.559-0.488-3.536-1.465L58.01,393.886c-1.953-1.952-1.953-5.118,0-7.07     l40.734-40.734c1.953-1.953,5.118-1.953,7.071,0c1.953,1.952,1.953,5.118,0,7.07l-37.198,37.199l53.033,53.032l37.198-37.197     c1.954-1.953,5.119-1.952,7.071,0s1.953,5.118,0,7.07l-40.734,40.733C124.209,454.966,122.93,455.454,121.65,455.454z" id="XMLID_377_"/></g><g id="XMLID_36_"><path d="M225.986,250.986h-25c-2.761,0-5-2.239-5-5s2.239-5,5-5h25c2.761,0,5,2.239,5,5     S228.748,250.986,225.986,250.986z" id="XMLID_387_"/></g><g id="XMLID_35_"><path d="M315.986,250.986h-70c-2.761,0-5-2.239-5-5s2.239-5,5-5h70c2.762,0,5,2.239,5,5     S318.748,250.986,315.986,250.986z" id="XMLID_386_"/></g><g id="XMLID_34_"><path d="M245.986,275.986h-45c-2.761,0-5-2.238-5-5s2.239-5,5-5h45c2.761,0,5,2.238,5,5     S248.748,275.986,245.986,275.986z" id="XMLID_385_"/></g><g id="XMLID_33_"><path d="M275.986,275.986h-10c-2.762,0-5-2.238-5-5s2.238-5,5-5h10c2.762,0,5,2.238,5,5     S278.748,275.986,275.986,275.986z" id="XMLID_384_"/></g><g id="XMLID_32_"><path d="M310.986,275.986h-15c-2.762,0-5-2.238-5-5s2.238-5,5-5h15c2.762,0,5,2.238,5,5     S313.748,275.986,310.986,275.986z" id="XMLID_383_"/></g><g id="XMLID_31_"><path d="M215.986,300.986h-15c-2.761,0-5-2.238-5-5s2.239-5,5-5h15c2.761,0,5,2.238,5,5     S218.748,300.986,215.986,300.986z" id="XMLID_382_"/></g><g id="XMLID_30_"><path d="M270.986,300.986h-35c-2.761,0-5-2.238-5-5s2.239-5,5-5h35c2.762,0,5,2.238,5,5     S273.748,300.986,270.986,300.986z" id="XMLID_381_"/></g><g id="XMLID_29_"><path d="M310.986,300.986h-20c-2.762,0-5-2.238-5-5s2.238-5,5-5h20c2.762,0,5,2.238,5,5     S313.748,300.986,310.986,300.986z" id="XMLID_380_"/></g><g id="XMLID_28_"><path d="M220.986,325.986h-20c-2.761,0-5-2.238-5-5s2.239-5,5-5h20c2.761,0,5,2.238,5,5     S223.748,325.986,220.986,325.986z" id="XMLID_379_"/></g><g id="XMLID_27_"><path d="M285.986,325.986h-45c-2.761,0-5-2.238-5-5s2.239-5,5-5h45c2.762,0,5,2.238,5,5     S288.748,325.986,285.986,325.986z" id="XMLID_378_"/></g><g id="XMLID_26_"><path d="M225.983,220.986c-1.095,0-2.198-0.358-3.12-1.096l-25-20c-1.186-0.949-1.876-2.385-1.876-3.904     s0.69-2.956,1.876-3.904l25-20c2.157-1.725,5.303-1.375,7.028,0.781c1.725,2.156,1.375,5.303-0.781,7.028l-20.12,16.096     l20.12,16.096c2.156,1.725,2.506,4.872,0.781,7.028C228.903,220.344,227.45,220.986,225.983,220.986z" id="XMLID_376_"/></g><g id="XMLID_25_"><path d="M285.989,220.986c-1.467,0-2.92-0.642-3.907-1.876c-1.726-2.156-1.375-5.303,0.781-7.028l20.119-16.096     l-20.119-16.096c-2.156-1.725-2.507-4.872-0.781-7.028c1.725-2.156,4.87-2.507,7.027-0.781l25,20     c1.187,0.949,1.877,2.385,1.877,3.904s-0.69,2.956-1.877,3.904l-25,20C288.188,220.627,287.085,220.986,285.989,220.986z" id="XMLID_375_"/></g><g id="XMLID_24_"><path d="M245.982,215.987c-0.841,0-1.694-0.212-2.476-0.66c-2.398-1.37-3.231-4.424-1.861-6.822l20-35     c1.369-2.398,4.423-3.233,6.821-1.861c2.397,1.37,3.23,4.424,1.86,6.822l-20,35C249.405,215.082,247.717,215.987,245.982,215.987     z" id="XMLID_371_"/></g><g id="XMLID_23_"><path d="M256,440.961c-101.988,0-184.961-82.973-184.961-184.961c0-101.988,82.973-184.961,184.961-184.961     c101.988,0,184.961,82.973,184.961,184.961C440.961,357.988,357.988,440.961,256,440.961z M256,81.039     c-96.474,0-174.961,78.487-174.961,174.961S159.526,430.961,256,430.961S430.961,352.474,430.961,256S352.474,81.039,256,81.039z     " id="XMLID_372_"/></g></g></g><g id="Layer_1"/>
  </symbol>

  <symbol viewBox="0 0 512 512" id="mobile">
    <g id="_x31_2_x2C__gear_x2C__ios_x2C__mobile_x2C__optimization_x2C__seo"><g id="XMLID_858_"><g id="XMLID_875_"><g id="XMLID_159_"><path d="M256,212.006c-33.084,0-60-26.916-60-60s26.916-60,60-60s60,26.916,60,60S289.084,212.006,256,212.006z       M256,102.006c-27.57,0-50,22.43-50,50s22.43,50,50,50s50-22.43,50-50S283.57,102.006,256,102.006z" id="XMLID_621_"/></g><g id="XMLID_158_"><path d="M276.005,167.007c-1.616,0-3.201-0.782-4.165-2.227c-1.532-2.297-0.911-5.402,1.387-6.934l8.76-5.84      l-8.76-5.84c-2.298-1.532-2.919-4.636-1.387-6.934c1.53-2.298,4.636-2.919,6.934-1.387l15,10      c1.391,0.927,2.227,2.488,2.227,4.16s-0.836,3.233-2.227,4.16l-15,10C277.921,166.735,276.958,167.007,276.005,167.007z" id="XMLID_620_"/></g><g id="XMLID_157_"><path d="M235.996,167.007c-0.953,0-1.917-0.272-2.769-0.84l-15-10c-1.391-0.927-2.227-2.488-2.227-4.16      s0.835-3.233,2.227-4.16l15-10c2.296-1.532,5.402-0.911,6.934,1.387c1.532,2.297,0.911,5.402-1.387,6.934l-8.76,5.84l8.76,5.84      c2.298,1.532,2.918,4.636,1.387,6.934C239.197,166.225,237.611,167.007,235.996,167.007z" id="XMLID_619_"/></g><g id="XMLID_156_"><path d="M246,187.008c-0.524,0-1.057-0.083-1.582-0.258c-2.62-0.874-4.036-3.705-3.163-6.325l20-60      c0.874-2.62,3.708-4.033,6.324-3.163c2.62,0.874,4.035,3.705,3.162,6.325l-20,60C250.045,185.683,248.094,187.008,246,187.008z" id="XMLID_618_"/></g><g id="XMLID_155_"><path d="M262.421,381H249.58c-2.341,0-4.369-1.625-4.88-3.91l-3.611-16.165      c-3.896-1.117-7.656-2.677-11.236-4.659l-14.024,8.879c-1.977,1.25-4.556,0.966-6.21-0.689l-9.071-9.071      c-1.654-1.653-1.94-4.233-0.689-6.21l8.876-14.019c-1.979-3.563-3.537-7.324-4.657-11.241l-16.165-3.61      c-2.285-0.511-3.91-2.538-3.91-4.88v-12.841c0-2.342,1.625-4.369,3.91-4.88l16.166-3.61c1.117-3.896,2.676-7.657,4.659-11.236      l-8.879-14.024c-1.251-1.977-0.965-4.557,0.689-6.21l9.071-9.071c1.657-1.656,4.239-1.94,6.215-0.686l14.015,8.897      c3.541-1.97,7.301-3.532,11.238-4.669l3.613-16.177c0.511-2.285,2.539-3.91,4.88-3.91h12.841c2.342,0,4.369,1.625,4.88,3.91      l3.613,16.177c3.937,1.137,7.696,2.699,11.237,4.669l14.015-8.897c1.977-1.255,4.56-0.971,6.215,0.686l9.071,9.07      c1.654,1.654,1.94,4.234,0.689,6.211l-8.879,14.024c1.982,3.579,3.541,7.34,4.658,11.235l16.166,3.611      c2.285,0.511,3.91,2.538,3.91,4.88v12.841c0,2.342-1.625,4.369-3.91,4.88l-16.166,3.611c-1.117,3.896-2.676,7.655-4.659,11.234      l8.88,14.024c1.251,1.977,0.965,4.557-0.689,6.21l-9.071,9.071c-1.652,1.655-4.232,1.942-6.21,0.689l-14.02-8.876      c-3.562,1.979-7.323,3.537-11.24,4.657l-3.61,16.164C266.79,379.375,264.763,381,262.421,381z M253.586,371h4.828l3.407-15.252      c0.423-1.893,1.902-3.37,3.795-3.791c4.96-1.103,9.647-3.044,13.934-5.771c1.633-1.041,3.721-1.043,5.359-0.007l13.23,8.376      l3.412-3.412l-8.376-13.229c-1.033-1.633-1.034-3.714-0.002-5.347c2.742-4.336,4.687-9.028,5.78-13.947      c0.421-1.894,1.898-3.372,3.791-3.795l15.252-3.407v-4.827l-15.252-3.407c-1.893-0.423-3.37-1.901-3.791-3.795      c-1.094-4.92-3.038-9.612-5.779-13.946c-1.033-1.633-1.032-3.715,0.001-5.348l8.376-13.23l-3.408-3.408l-13.229,8.398      c-1.64,1.04-3.735,1.038-5.371-0.008c-4.243-2.71-8.937-4.662-13.95-5.801c-1.882-0.428-3.351-1.901-3.771-3.786l-3.407-15.252      h-4.828l-3.407,15.252c-0.421,1.885-1.889,3.358-3.772,3.786c-5.013,1.139-9.707,3.091-13.951,5.801      c-1.638,1.046-3.732,1.047-5.371,0.008l-13.229-8.398l-3.409,3.408l8.376,13.23c1.034,1.633,1.034,3.715,0.001,5.348      c-2.742,4.334-4.686,9.026-5.779,13.945c-0.42,1.894-1.898,3.373-3.791,3.796l-15.252,3.407v4.827l15.252,3.407      c1.893,0.423,3.371,1.902,3.791,3.795c1.102,4.959,3.044,9.647,5.772,13.935c1.04,1.635,1.042,3.723,0.006,5.359l-8.376,13.229      l3.412,3.412l13.23-8.376c1.633-1.033,3.714-1.035,5.348-0.001c4.334,2.742,9.026,4.687,13.946,5.779      c1.893,0.421,3.373,1.898,3.795,3.791L253.586,371z" id="XMLID_615_"/></g><g id="XMLID_154_"><path d="M256.025,336.858c-15.373,0-27.88-12.484-27.88-27.83c0-15.373,12.507-27.88,27.88-27.88      c15.346,0,27.83,12.507,27.83,27.88C283.855,324.374,271.371,336.858,256.025,336.858z M256.025,291.148      c-9.859,0-17.88,8.021-17.88,17.88c0,9.831,8.021,17.83,17.88,17.83c9.831,0,17.83-7.999,17.83-17.83      C273.855,299.169,265.856,291.148,256.025,291.148z" id="XMLID_612_"/></g></g><g id="XMLID_153_"><path d="M355.5,491h-199c-27.846,0-50.5-22.654-50.5-50.5v-369c0-27.846,22.654-50.5,50.5-50.5h199     c27.846,0,50.5,22.654,50.5,50.5v369C406,468.346,383.346,491,355.5,491z M156.5,31C134.168,31,116,49.168,116,71.5v369     c0,22.332,18.168,40.5,40.5,40.5h199c22.332,0,40.5-18.168,40.5-40.5v-369c0-22.332-18.168-40.5-40.5-40.5H156.5z" id="XMLID_609_"/></g><g id="XMLID_152_"><path d="M366,421H146c-2.761,0-5-2.238-5-5V66c0-2.761,2.239-5,5-5h220c2.762,0,5,2.239,5,5v350     C371,418.762,368.762,421,366,421z M151,411h210V71H151V411z" id="XMLID_606_"/></g><g id="XMLID_151_"><path d="M276,466h-40c-8.271,0-15-6.729-15-15s6.729-15,15-15h40c8.271,0,15,6.729,15,15S284.271,466,276,466z      M236,446c-2.757,0-5,2.243-5,5s2.243,5,5,5h40c2.757,0,5-2.243,5-5s-2.243-5-5-5H236z" id="XMLID_603_"/></g><g id="XMLID_150_"><path d="M346,456h-30c-2.762,0-5-2.238-5-5s2.238-5,5-5h30c2.762,0,5,2.238,5,5S348.762,456,346,456z" id="XMLID_602_"/></g><g id="XMLID_149_"><path d="M196,456h-30c-2.761,0-5-2.238-5-5s2.239-5,5-5h30c2.761,0,5,2.238,5,5S198.761,456,196,456z" id="XMLID_601_"/></g></g></g><g id="Layer_1"/>
  </symbol>

  <symbol viewBox="0 0 512 512" id="3d">
    <g id="_x32_4_x2C__Eye_x2C__redeye_x2C__visible_x2C__view_x2C__vision"><g id="XMLID_858_"><g id="XMLID_9_"><path d="M256,317.871c-34.116,0-61.871-27.755-61.871-61.871c0-34.116,27.755-61.871,61.871-61.871     c34.116,0,61.871,27.755,61.871,61.871C317.871,290.116,290.116,317.871,256,317.871z M256,204.129     c-28.602,0-51.871,23.269-51.871,51.871c0,28.602,23.269,51.871,51.871,51.871c28.602,0,51.871-23.27,51.871-51.871     C307.871,227.398,284.602,204.129,256,204.129z" id="XMLID_306_"/></g><g id="XMLID_8_"><path d="M256,406c-49.491,0-98.609-14.626-142.046-42.297C73.292,337.8,38.675,301.423,13.847,258.504     c-0.896-1.549-0.896-3.458,0-5.008c24.828-42.918,59.445-79.296,100.107-105.2C157.391,120.626,206.51,106,256,106     s98.609,14.626,142.046,42.296c40.663,25.904,75.279,62.281,100.107,105.2c0.896,1.549,0.896,3.458,0,5.008     c-24.828,42.919-59.444,79.296-100.107,105.199C354.609,391.374,305.49,406,256,406z M23.967,256     C75.057,342.433,163.709,396,256,396c92.29,0,180.943-53.567,232.033-140C436.943,169.567,348.29,116,256,116     S75.057,169.567,23.967,256z" id="XMLID_303_"/></g><g id="XMLID_7_"><path d="M256,359.232c-56.922,0-103.232-46.31-103.232-103.232c0-56.922,46.31-103.232,103.232-103.232     c17.009,0,33.876,4.23,48.777,12.234c2.433,1.307,3.346,4.338,2.039,6.771c-1.307,2.434-4.34,3.345-6.771,2.039     c-13.451-7.225-28.682-11.043-44.045-11.043c-51.409,0-93.232,41.824-93.232,93.232c0,51.408,41.824,93.232,93.232,93.232     c51.408,0,93.232-41.824,93.232-93.232c0-10.607-1.772-21.022-5.27-30.958c-0.916-2.604,0.452-5.459,3.057-6.376     c2.607-0.919,5.46,0.451,6.377,3.057c3.872,11.004,5.836,22.537,5.836,34.277C359.232,312.923,312.923,359.232,256,359.232z" id="XMLID_302_"/></g><g id="XMLID_6_"><path d="M326,236.556c-22.362,0-40.556-18.193-40.556-40.556s18.193-40.556,40.556-40.556     s40.556,18.193,40.556,40.556S348.362,236.556,326,236.556z M326,165.444c-16.849,0-30.556,13.707-30.556,30.556     s13.707,30.556,30.556,30.556s30.556-13.707,30.556-30.556S342.849,165.444,326,165.444z" id="XMLID_299_"/></g></g></g><g id="Layer_1"/>
  </symbol>

  <symbol viewBox="0 0 30 30" id="1c">
    <g id="surface55313724">
    <path style=" stroke:none;fill-rule:nonzero;" d="M 5 13 L 6.332031 13 L 6.332031 20.332031 L 7.667969 20.332031 L 7.667969 11.667969 L 5 11.667969 Z M 5 13 "/>
    <path style=" stroke:none;fill-rule:nonzero;" d="M 6.332031 11 L 8.332031 11 L 8.332031 20.332031 L 9.667969 20.332031 L 9.667969 9.667969 L 6.332031 9.667969 Z M 12.332031 15 C 12.332031 12.792969 14.128906 11 16.332031 11 C 18.539062 11 20.332031 12.792969 20.332031 15 L 21.667969 15 C 21.667969 12.058594 19.273438 9.667969 16.332031 9.667969 C 13.394531 9.667969 11 12.058594 11 15 C 11 17.941406 13.394531 20.332031 16.332031 20.332031 L 25 20.332031 L 25 19 L 16.332031 19 C 14.128906 19 12.332031 17.207031 12.332031 15 Z M 12.332031 15 "/>
    <path style=" stroke:none;fill-rule:nonzero;" d="M 16.332031 16.332031 C 15.597656 16.332031 15 15.734375 15 15 C 15 14.265625 15.597656 13.667969 16.332031 13.667969 C 17.070312 13.667969 17.667969 14.265625 17.667969 15 L 19 15 C 19 13.53125 17.804688 12.332031 16.332031 12.332031 C 14.863281 12.332031 13.667969 13.53125 13.667969 15 C 13.667969 16.472656 14.863281 17.667969 16.332031 17.667969 L 25 17.667969 L 25 16.332031 Z M 16.332031 16.332031 "/>
    </g>
  </symbol>

  <symbol viewBox="0 0 24 24" id="arrow">
    <path d="M3.5,7 C3.22385763,7 3,6.77614237 3,6.5 C3,6.22385763 3.22385763,6 3.5,6 L20.5,6 C20.7761424,6 21,6.22385763 21,6.5 C21,6.77614237 20.7761424,7 20.5,7 L3.5,7 Z M3.5,11 C3.22385763,11 3,10.7761424 3,10.5 C3,10.2238576 3.22385763,10 3.5,10 L13.5,10 C13.7761424,10 14,10.2238576 14,10.5 C14,10.7761424 13.7761424,11 13.5,11 L3.5,11 Z M3.5,15 C3.22385763,15 3,14.7761424 3,14.5 C3,14.2238576 3.22385763,14 3.5,14 L13.5,14 C13.7761424,14 14,14.2238576 14,14.5 C14,14.7761424 13.7761424,15 13.5,15 L3.5,15 Z M3.5,19 C3.22385763,19 3,18.7761424 3,18.5 C3,18.2238576 3.22385763,18 3.5,18 L20.5,18 C20.7761424,18 21,18.2238576 21,18.5 C21,18.7761424 20.7761424,19 20.5,19 L3.5,19 Z M16,15.5 L16,9.5 C16,9.08797734 16.4703819,8.8527864 16.8,9.1 L20.8,12.1 C21.0666667,12.3 21.0666667,12.7 20.8,12.9 L16.8,15.9 C16.4703819,16.1472136 16,15.9120227 16,15.5 Z M19.6666667,12.5 L17,10.5 L17,14.5 L19.6666667,12.5 Z"/>
  </symbol>

  <symbol viewBox="0 0 516.000000 514.000000" id="logo">
    <g transform="translate(0.000000,514.000000) scale(0.100000,-0.100000)"
    stroke="none">
    <path d="M3804 5130 c-179 -16 -471 -85 -671 -159 -624 -230 -1236 -640 -1798
    -1205 -715 -717 -1185 -1540 -1311 -2291 -24 -142 -24 -449 0 -569 34 -172
    100 -340 179 -455 78 -113 220 -238 358 -314 73 -41 238 -97 344 -118 106 -21
    482 -18 605 4 814 151 1679 671 2430 1462 496 522 901 1168 1083 1730 91 279
    129 491 130 730 0 191 -11 284 -54 428 -52 173 -130 308 -248 431 -208 214
    -466 318 -823 330 -73 3 -174 1 -224 -4z m381 -351 c335 -54 554 -273 615
    -616 19 -104 8 -420 -19 -544 -53 -244 -125 -447 -255 -714 -222 -456 -504
    -847 -911 -1264 -766 -783 -1658 -1271 -2371 -1298 -184 -7 -302 9 -437 58
    -268 97 -434 338 -456 659 -9 124 1 327 19 419 99 492 344 996 734 1510 156
    205 290 357 490 556 411 409 808 704 1261 935 492 251 965 358 1330 299z"/>
    <path d="M2670 3793 c-172 -12 -393 -59 -540 -113 -496 -183 -897 -635 -959
    -1084 -15 -109 -14 -272 4 -355 47 -225 200 -410 338 -411 73 0 119 40 119
    105 0 51 -26 89 -105 153 -100 82 -144 133 -180 211 -28 59 -31 77 -35 181 -3
    98 0 129 21 211 102 392 445 724 921 888 318 110 679 115 893 14 76 -36 166
    -126 200 -200 23 -49 28 -75 31 -164 6 -156 -30 -276 -126 -416 -102 -150
    -223 -239 -396 -292 -57 -17 -94 -21 -222 -21 -134 0 -154 2 -154 16 0 31 174
    673 232 852 16 52 28 96 25 98 -2 2 -48 -5 -101 -16 -87 -18 -377 -60 -412
    -60 -10 0 -34 -55 -34 -81 0 -4 18 -9 41 -12 54 -7 89 -40 89 -84 0 -52 -330
    -1335 -383 -1488 -75 -217 -163 -299 -367 -342 -87 -19 -94 -24 -105 -86 -8
    -44 -15 -42 113 -20 127 22 427 23 572 3 149 -21 474 -20 559 2 34 9 64 18 66
    20 5 6 24 103 20 106 -2 2 -44 -5 -93 -17 -135 -32 -246 -36 -387 -16 -66 9
    -124 21 -129 26 -5 5 10 75 38 171 25 90 84 305 129 478 l83 315 200 6 c218 6
    294 19 461 74 250 83 431 213 550 396 76 117 105 202 111 331 4 89 1 117 -16
    175 -99 325 -493 489 -1072 446z"/>
    <path d="M2630 2296 c0 -11 9 -16 28 -16 15 0 38 -7 51 -16 29 -21 29 -26 -60
    -324 -134 -452 -140 -464 -208 -476 -164 -30 109 -45 424 -24 173 11 221 27
    285 91 95 94 102 207 19 290 -21 21 -60 46 -88 56 -57 20 -63 28 -26 37 65 16
    140 51 171 79 87 75 97 175 26 251 -53 57 -73 60 -359 64 -235 3 -263 2 -263
    -12z m409 -50 c55 -29 66 -108 27 -191 -38 -82 -103 -125 -187 -125 -33 0 -40
    3 -35 15 3 9 24 77 46 153 22 75 42 143 45 150 6 16 70 15 104 -2z m-69 -411
    c39 -37 52 -84 40 -146 -19 -98 -73 -168 -148 -189 -40 -11 -152 -14 -152 -4
    0 9 102 358 108 368 2 4 31 6 63 4 48 -3 65 -10 89 -33z"/>
    </g>
  </symbol>

</svg>
