<?xml version="1.0" standalone="no"?>
<!DOCTYPE svg PUBLIC "-//W3C//DTD SVG 20010904//EN"
 "http://www.w3.org/TR/2001/REC-SVG-20010904/DTD/svg10.dtd">
<svg version="1.0" xmlns="http://www.w3.org/2000/svg"
 width="516.000000pt" height="514.000000pt" viewBox="0 0 516.000000 514.000000"
 preserveAspectRatio="xMidYMid meet">

<g transform="translate(0.000000,514.000000) scale(0.100000,-0.100000)"
fill="#000000" stroke="none">
<path d="M3804 5130 c-179 -16 -471 -85 -671 -159 -624 -230 -1236 -640 -1798
-1205 -715 -717 -1185 -1540 -1311 -2291 -24 -142 -24 -449 0 -569 34 -172
100 -340 179 -455 78 -113 220 -238 358 -314 73 -41 238 -97 344 -118 106 -21
482 -18 605 4 814 151 1679 671 2430 1462 496 522 901 1168 1083 1730 91 279
129 491 130 730 0 191 -11 284 -54 428 -52 173 -130 308 -248 431 -208 214
-466 318 -823 330 -73 3 -174 1 -224 -4z m381 -351 c335 -54 554 -273 615
-616 19 -104 8 -420 -19 -544 -53 -244 -125 -447 -255 -714 -222 -456 -504
-847 -911 -1264 -766 -783 -1658 -1271 -2371 -1298 -184 -7 -302 9 -437 58
-268 97 -434 338 -456 659 -9 124 1 327 19 419 99 492 344 996 734 1510 156
205 290 357 490 556 411 409 808 704 1261 935 492 251 965 358 1330 299z"/>
<path d="M2670 3793 c-172 -12 -393 -59 -540 -113 -496 -183 -897 -635 -959
-1084 -15 -109 -14 -272 4 -355 47 -225 200 -410 338 -411 73 0 119 40 119
105 0 51 -26 89 -105 153 -100 82 -144 133 -180 211 -28 59 -31 77 -35 181 -3
98 0 129 21 211 102 392 445 724 921 888 318 110 679 115 893 14 76 -36 166
-126 200 -200 23 -49 28 -75 31 -164 6 -156 -30 -276 -126 -416 -102 -150
-223 -239 -396 -292 -57 -17 -94 -21 -222 -21 -134 0 -154 2 -154 16 0 31 174
673 232 852 16 52 28 96 25 98 -2 2 -48 -5 -101 -16 -87 -18 -377 -60 -412
-60 -10 0 -34 -55 -34 -81 0 -4 18 -9 41 -12 54 -7 89 -40 89 -84 0 -52 -330
-1335 -383 -1488 -75 -217 -163 -299 -367 -342 -87 -19 -94 -24 -105 -86 -8
-44 -15 -42 113 -20 127 22 427 23 572 3 149 -21 474 -20 559 2 34 9 64 18 66
20 5 6 24 103 20 106 -2 2 -44 -5 -93 -17 -135 -32 -246 -36 -387 -16 -66 9
-124 21 -129 26 -5 5 10 75 38 171 25 90 84 305 129 478 l83 315 200 6 c218 6
294 19 461 74 250 83 431 213 550 396 76 117 105 202 111 331 4 89 1 117 -16
175 -99 325 -493 489 -1072 446z"/>
<path d="M2630 2296 c0 -11 9 -16 28 -16 15 0 38 -7 51 -16 29 -21 29 -26 -60
-324 -134 -452 -140 -464 -208 -476 -164 -30 109 -45 424 -24 173 11 221 27
285 91 95 94 102 207 19 290 -21 21 -60 46 -88 56 -57 20 -63 28 -26 37 65 16
140 51 171 79 87 75 97 175 26 251 -53 57 -73 60 -359 64 -235 3 -263 2 -263
-12z m409 -50 c55 -29 66 -108 27 -191 -38 -82 -103 -125 -187 -125 -33 0 -40
3 -35 15 3 9 24 77 46 153 22 75 42 143 45 150 6 16 70 15 104 -2z m-69 -411
c39 -37 52 -84 40 -146 -19 -98 -73 -168 -148 -189 -40 -11 -152 -14 -152 -4
0 9 102 358 108 368 2 4 31 6 63 4 48 -3 65 -10 89 -33z"/>
</g>
</svg>
